<svg xmlns="http://www.w3.org/2000/svg" xmlns:xlink="http://www.w3.org/1999/xlink" viewBox="0 0 1059.99 317.07"><defs><style>.cls-1{fill:none;}.cls-2{clip-path:url(#clip-path);}.cls-3{fill:url(#linear-gradient);}.cls-4{fill:#fff;}</style><clipPath id="clip-path" transform="translate(5.04 0)"><path class="cls-1" d="M86.87,129.29c-12.22,8-23.11-21.64-25.06-25.06-6.72,49.51-27.36,55.1-50.45,89.78C-5,218.63-3.73,248.25,15.58,271A127,127,0,0,0,42.47,294.7c10.06,6.6,22.16,9.14,32.31,15.59C43.61,283.92,34.35,248.57,48.3,209.92a116,116,0,0,1,10.46-21.78c2,56.32,46.64,69.88,46.64,69.88,15.06,5.34,47.36,16.29,45.62,37.07-.8,9.47-7.68,17-15.27,22,34.47-9.74,87.23-31.25,83.68-75.4-2.21-27.48-19.72-52.41-38.41-71.54a178.68,178.68,0,0,0-15.55-14.34l-.17-.14c6.3,13,14.9,27.08,12.23,42.15-2.21,12.48-11.74,23.82-24.1,27.28-26,7.28-33.34-22.35-29.11-41.81,3.92-18,12.63-33.45,14.68-52.16,3.4-31.12-4.07-60.45-20.74-86.79C109.32,30.19,98.59,9.52,84.83,0c20,37,39.42,105,2,129.29"/></clipPath><linearGradient id="linear-gradient" x1="-94.53" y1="658.79" x2="-93.63" y2="658.79" gradientTransform="matrix(0, 231.85, 231.85, 0, -152629.85, 21948.44)" gradientUnits="userSpaceOnUse"><stop offset="0" stop-color="#f5871f"/><stop offset="0.37" stop-color="#f5871f"/><stop offset="0.85" stop-color="#ef4c45"/><stop offset="1" stop-color="#ef4c45"/><stop offset="1" stop-color="#ef4c45"/></linearGradient></defs><g id="Layer_2" data-name="Layer 2"><g id="Layer_1-2" data-name="Layer 1"><g class="cls-2"><rect class="cls-3" width="228.02" height="317.07"/></g><path class="cls-4" d="M275.62,82.75h52.79v17.39H296.56v43.55h25v17.39h-25v67.24H275.62Z" transform="translate(5.04 0)"/><path class="cls-4" d="M342.39,82.75h20.94V228.32H342.39Z" transform="translate(5.04 0)"/><path class="cls-4" d="M386.94,82.75h22.72c2.58,0,5.43.12,8.53.34a46.64,46.64,0,0,1,9.29,1.66,36.65,36.65,0,0,1,9,4A26.91,26.91,0,0,1,444.14,96a37.06,37.06,0,0,1,5.37,11.55,60.77,60.77,0,0,1,2,16.83V128q0,16.62-4.52,27.06t-13.34,15l22.15,58.21H433.67l-18.35-54.46h-7.85v54.46H386.94Zm23.69,75.17a29.14,29.14,0,0,0,9.29-1.28,12.67,12.67,0,0,0,6.15-4.3,19.56,19.56,0,0,0,3.39-8A61.06,61.06,0,0,0,430.51,132v-11.5a42.43,42.43,0,0,0-1-9.72,15.33,15.33,0,0,0-3.27-6.73,13.7,13.7,0,0,0-6.1-3.92,30.44,30.44,0,0,0-9.54-1.28h-3.16v59.06Z" transform="translate(5.04 0)"/><path class="cls-4" d="M471.66,82.75h51.18v17.39H492.6v43.55H516v17.39H492.6v49.86h31v17.38h-52Z" transform="translate(5.04 0)"/><path class="cls-4" d="M533.43,198.83a64.38,64.38,0,0,1,.53-8.65c.34-2.64.87-5.5,1.57-8.56h16.25v7.07a69.56,69.56,0,0,0,.69,10.4,25.48,25.48,0,0,0,2.26,7.63,11.13,11.13,0,0,0,4.21,4.68,12.18,12.18,0,0,0,6.42,1.58q6,0,9.14-3.45t3.15-10.1a41.86,41.86,0,0,0-.44-6.27,27.2,27.2,0,0,0-1.54-5.66,39.77,39.77,0,0,0-2.95-5.93,77.18,77.18,0,0,0-4.77-6.94l-21.83-27.36a69.59,69.59,0,0,1-9-15.81,45.81,45.81,0,0,1-3.15-17,39.6,39.6,0,0,1,2.14-13.3,30,30,0,0,1,6.18-10.44,27.54,27.54,0,0,1,10-6.82,35.26,35.26,0,0,1,13.46-2.43q9.13,0,15.24,2.73a25.51,25.51,0,0,1,14.87,17.09,41.72,41.72,0,0,1,1.5,11,50.64,50.64,0,0,1-.69,8.65c-.46,2.64-1,5.55-1.58,8.73H578.94v-6.9q0-11.59-3.15-17.77a10.7,10.7,0,0,0-10.27-6.18q-5.89,0-8.81,3.45t-2.91,9.25a31.14,31.14,0,0,0,.45,5.54,22.05,22.05,0,0,0,1.29,4.56,27.55,27.55,0,0,0,2.06,4c.81,1.3,1.73,2.67,2.75,4.09l24.33,31a89.72,89.72,0,0,1,10.19,17.51,45.17,45.17,0,0,1,3.56,17.78,39.86,39.86,0,0,1-2.31,14,29.33,29.33,0,0,1-6.58,10.57,29,29,0,0,1-10.35,6.69,37.72,37.72,0,0,1-13.67,2.35q-9.37,0-15.56-2.65a26,26,0,0,1-9.86-7,25.21,25.21,0,0,1-5.17-9.88A43.16,43.16,0,0,1,533.43,198.83Z" transform="translate(5.04 0)"/><path class="cls-4" d="M628.83,100.14H606.59V82.75h65.33v17.39H649.76V228.32H628.83Z" transform="translate(5.04 0)"/><path class="cls-4" d="M701.26,82.75h24.09L750.9,228.32H729.72l-3.8-26.08H700.7l-3.64,26.08H675.8Zm22.23,102.87-9.7-72.53h-.89l-9.78,72.53Z" transform="translate(5.04 0)"/><path class="cls-4" d="M764.24,82.75H787c2.58,0,5.43.12,8.53.34a46.64,46.64,0,0,1,9.29,1.66,36.65,36.65,0,0,1,9,4A26.91,26.91,0,0,1,821.44,96a37.06,37.06,0,0,1,5.37,11.55,60.77,60.77,0,0,1,2,16.83V128q0,16.62-4.52,27.06t-13.34,15l22.15,58.21H811l-18.35-54.46h-7.85v54.46H764.24Zm23.69,75.17a29.14,29.14,0,0,0,9.29-1.28,12.67,12.67,0,0,0,6.15-4.3,19.56,19.56,0,0,0,3.39-8,61.06,61.06,0,0,0,1-12.32v-11.5a42.43,42.43,0,0,0-1-9.72,15.33,15.33,0,0,0-3.27-6.73,13.7,13.7,0,0,0-6.1-3.92,30.44,30.44,0,0,0-9.54-1.28h-3.16v59.06Z" transform="translate(5.04 0)"/><path class="cls-4" d="M861.74,100.14H839.51V82.75h65.32v17.39H882.68V228.32H861.74Z" transform="translate(5.04 0)"/><path class="cls-4" d="M919,82.75h51.17v17.39H939.91v43.55h23.37v17.39H939.91v49.86H971v17.38H919Z" transform="translate(5.04 0)"/><path class="cls-4" d="M986.08,82.75h22.71c2.59,0,5.43.12,8.53.34a46.61,46.61,0,0,1,9.3,1.66,36.42,36.42,0,0,1,9,4,26.65,26.65,0,0,1,7.68,7.24,37.07,37.07,0,0,1,5.38,11.55,60.77,60.77,0,0,1,2,16.83V128q0,16.62-4.53,27.06t-13.34,15L1055,228.32H1032.8l-18.35-54.46h-7.84v54.46H986.08Zm23.68,75.17a29.16,29.16,0,0,0,9.3-1.28,12.65,12.65,0,0,0,6.14-4.3,19.43,19.43,0,0,0,3.4-8,61.06,61.06,0,0,0,1.05-12.32v-11.5a42.43,42.43,0,0,0-1-9.72,15.55,15.55,0,0,0-3.27-6.73,13.73,13.73,0,0,0-6.11-3.92,30.36,30.36,0,0,0-9.54-1.28h-3.15v59.06Z" transform="translate(5.04 0)"/><path class="cls-4" d="M286.81,281.92a17.32,17.32,0,0,1-5.33-.86,18.18,18.18,0,0,1-5.14-2.67V272h2.14l.32,5.14a14.84,14.84,0,0,0,3.91,1.85,14,14,0,0,0,4.1.61,10.48,10.48,0,0,0,4.28-.8,6.68,6.68,0,0,0,2.84-2.24,5.58,5.58,0,0,0,1-3.32,6.07,6.07,0,0,0-.82-3.18,7.13,7.13,0,0,0-2.67-2.41,23,23,0,0,0-5-1.9,23.51,23.51,0,0,1-5.55-2.17,8.41,8.41,0,0,1-3.16-3,8.27,8.27,0,0,1-1-4.18,7.72,7.72,0,0,1,1.24-4.35,8.37,8.37,0,0,1,3.47-3,11.92,11.92,0,0,1,5.2-1.07,14.91,14.91,0,0,1,5.6,1,13.85,13.85,0,0,1,4.18,2.56v5.89H294.3l-.32-4.67A9.89,9.89,0,0,0,290.8,251a12.48,12.48,0,0,0-4.16-.65,8.91,8.91,0,0,0-3.93.8,6.2,6.2,0,0,0-2.53,2.16,5.53,5.53,0,0,0-.89,3.08,5.86,5.86,0,0,0,.71,2.91,6,6,0,0,0,2.43,2.22,23.53,23.53,0,0,0,4.85,1.84,18.59,18.59,0,0,1,7.64,3.72,8.51,8.51,0,0,1,1.23,10.73,8.8,8.8,0,0,1-3.77,3A13.34,13.34,0,0,1,286.81,281.92Z" transform="translate(5.04 0)"/><path class="cls-4" d="M305.55,281.45v-2l3.48-.3v-28.4l-3.48-.29v-2h22.34v7.22h-2.18l-.21-5H311.6V263.2h12.53v2.27H311.6v13.78h14.56l.21-5h2.16v7.22Z" transform="translate(5.04 0)"/><path class="cls-4" d="M337.11,281.45v-2l2.29-.16,11-30.83h2.43l10.95,30.83,2.29.16v2h-7.67v-2l2.74-.21-2.59-7.44H344.65L342,279.27l2.74.21v2Zm8.37-12h12.28l-5.62-16.18-.42-1.34h-.13l-.45,1.34Z" transform="translate(5.04 0)"/><path class="cls-4" d="M373.77,281.47v-2l3.48-.3v-28.4l-3.48-.29v-2h13.11a13.59,13.59,0,0,1,5.64,1,7.58,7.58,0,0,1,3.51,3,9.29,9.29,0,0,1,1.21,4.91,8.7,8.7,0,0,1-1.25,4.78,7.81,7.81,0,0,1-3.5,3,13.06,13.06,0,0,1-5.29,1l-7.39.07v12.85l3.48.3v2Zm6-17.41h6.82c2.77,0,4.81-.6,6.1-1.81a6.18,6.18,0,0,0,1.95-4.77,6.32,6.32,0,0,0-1.95-5c-1.29-1.16-3.24-1.75-5.85-1.75h-7.07Zm14.87,17.41L388,265.11l2.56,0,5.94,14.19,2.54.18v2Z" transform="translate(5.04 0)"/><path class="cls-4" d="M422.28,281.92a13.47,13.47,0,0,1-7.76-2.14,13.17,13.17,0,0,1-4.76-5.92,21.82,21.82,0,0,1-1.61-8.66v-.43a21.41,21.41,0,0,1,1.67-8.71,13.84,13.84,0,0,1,4.75-5.9,12.3,12.3,0,0,1,7.22-2.14,14.55,14.55,0,0,1,5.52.95,13.48,13.48,0,0,1,4.11,2.6V258h-2.18l-.21-5.25a11.58,11.58,0,0,0-2-1.27,9.38,9.38,0,0,0-2.31-.8,13.61,13.61,0,0,0-3-.29,9.72,9.72,0,0,0-5.88,1.82,11.69,11.69,0,0,0-3.84,5.05,19.05,19.05,0,0,0-1.36,7.48v.48a19.31,19.31,0,0,0,1.38,7.62,11.11,11.11,0,0,0,4,5,10.88,10.88,0,0,0,6.24,1.76,13.73,13.73,0,0,0,3.8-.52,10.82,10.82,0,0,0,3.08-1.38l.21-5h2.16v6.56a14,14,0,0,1-4.28,2A18.22,18.22,0,0,1,422.28,281.92Z" transform="translate(5.04 0)"/><path class="cls-4" d="M440.07,281.45v-2l3.48-.3v-28.4l-3.48-.29v-2h9.52v2l-3.48.29V264h17.55V250.78l-3.48-.29v-2h9.53v2l-3.48.29v28.4l3.48.3v2h-9.53v-2l3.48-.3V266.26H446.11v12.92l3.48.3v2Z" transform="translate(5.04 0)"/><path class="cls-4" d="M492.25,281.45v-2l3.48-.3v-28.4l-3.48-.29v-2h22.33v7.22h-2.17l-.22-5h-13.9V263.2h12.54v2.27H498.29v13.78h14.56l.22-5h2.15v7.22Z" transform="translate(5.04 0)"/><path class="cls-4" d="M524.12,281.45v-2l3.49-.3v-28.4l-3.49-.29v-2h6.07L548,276.83l.12-.05v-26l-3.63-.29v-2H554v2l-3.48.29v30.67h-2.39l-18-28.45-.13,0v26.14l3.63.3v2Z" transform="translate(5.04 0)"/><path class="cls-4" d="M576.12,281.92a12.79,12.79,0,0,1-7.38-2.11,13.65,13.65,0,0,1-4.78-5.89,21.23,21.23,0,0,1-1.68-8.72v-.73a20.14,20.14,0,0,1,1.72-8.59,14.08,14.08,0,0,1,4.73-5.78,11.7,11.7,0,0,1,6.83-2.08,16.23,16.23,0,0,1,5.84.92,15.15,15.15,0,0,1,4.26,2.45v6.13h-2.2l-.21-4.93a10.45,10.45,0,0,0-3.11-1.63,14,14,0,0,0-4.39-.59,9.26,9.26,0,0,0-5.56,1.78,12.23,12.23,0,0,0-3.91,4.93,17.59,17.59,0,0,0-1.44,7.35v.77a19.64,19.64,0,0,0,1.34,7.52,11.4,11.4,0,0,0,3.84,5.06,10.09,10.09,0,0,0,6.08,1.81,15.25,15.25,0,0,0,4.44-.59,16.11,16.11,0,0,0,3.33-1.4v-8.74l-6.39-.09v-2.19h8.95v12.08a16.06,16.06,0,0,1-10.31,3.26Z" transform="translate(5.04 0)"/><path class="cls-4" d="M595.5,281.45v-2l3.48-.3v-28.4l-3.48-.29v-2H605v2l-3.48.29v28.4l3.48.3v2Z" transform="translate(5.04 0)"/><path class="cls-4" d="M612.6,281.45v-2l3.48-.3v-28.4l-3.48-.29v-2h6.07l17.76,28.34.13-.05v-26l-3.63-.29v-2h9.53v2l-3.48.29v30.67h-2.4l-18-28.45-.12,0v26.14l3.63.3v2Z" transform="translate(5.04 0)"/><path class="cls-4" d="M650.1,281.45v-2l3.48-.3v-28.4l-3.48-.29v-2h22.33v7.22h-2.18l-.21-5h-13.9V263.2h12.53v2.27H656.14v13.78H670.7l.22-5h2.15v7.22Z" transform="translate(5.04 0)"/><path class="cls-4" d="M710.48,281.92A11.51,11.51,0,0,1,701,277.3a16,16,0,0,1-2.63-5.28,23.79,23.79,0,0,1-.92-6.82v-.43a24.23,24.23,0,0,1,.91-6.83,16.17,16.17,0,0,1,2.62-5.29,11.48,11.48,0,0,1,9.44-4.63,12,12,0,0,1,5.41,1.2,11.62,11.62,0,0,1,4.1,3.43,15.92,15.92,0,0,1,2.58,5.29,24.62,24.62,0,0,1,.89,6.83v.43a24.54,24.54,0,0,1-.89,6.82A16,16,0,0,1,720,277.3a11.66,11.66,0,0,1-4.09,3.42A12,12,0,0,1,710.48,281.92Zm0-2.38a9.05,9.05,0,0,0,5.69-1.78,11,11,0,0,0,3.51-5,21.59,21.59,0,0,0,1.2-7.53v-.48a21.39,21.39,0,0,0-1.21-7.51,11.15,11.15,0,0,0-3.53-5,9.09,9.09,0,0,0-5.68-1.79,8.88,8.88,0,0,0-5.56,1.79,11.35,11.35,0,0,0-3.57,5,20.54,20.54,0,0,0-1.25,7.5v.48a20.67,20.67,0,0,0,1.25,7.53,11.18,11.18,0,0,0,3.58,5A8.92,8.92,0,0,0,710.48,279.54Z" transform="translate(5.04 0)"/><path class="cls-4" d="M731.74,281.45v-2l3.48-.3v-28.4l-3.48-.29v-2h13.11a11.92,11.92,0,0,1,5.58,1.2,8.3,8.3,0,0,1,3.48,3.36,11.4,11.4,0,0,1,0,10.14,8.22,8.22,0,0,1-3.48,3.35,12,12,0,0,1-5.58,1.19h-7.07v11.45l3.49.3v2Zm6-16h7.07c2.56,0,4.49-.7,5.77-2.1a7.4,7.4,0,0,0,1.92-5.21,7.57,7.57,0,0,0-1.91-5.29c-1.28-1.39-3.2-2.09-5.78-2.09h-7.07Z" transform="translate(5.04 0)"/><path class="cls-4" d="M771.13,281.45v-2l3.48-.3V250.71h-8.73l-.28,5h-2.09v-7.25h24.75v7.25h-2.07l-.3-5h-8.71v28.47l3.48.3v2Z" transform="translate(5.04 0)"/><path class="cls-4" d="M796.16,281.45v-2l3.48-.3v-28.4l-3.48-.29v-2h9.52v2l-3.48.29v28.4l3.48.3v2Z" transform="translate(5.04 0)"/><path class="cls-4" d="M813.36,281.45v-2l3.48-.3v-28.4l-3.48-.29v-2h6.94l11.49,28.25h.13l11.34-28.25h7.11v2l-3.48.29v28.4l3.48.3v2h-9.52v-2l3.56-.3V252.45l-.1,0L832.77,280.9H831l-11.66-28.38-.13,0,.09,12.24v14.37l3.61.3v2Z" transform="translate(5.04 0)"/><path class="cls-4" d="M858.12,281.45v-2l3.48-.3v-28.4l-3.48-.29v-2h9.52v2l-3.48.29v28.4l3.48.3v2Z" transform="translate(5.04 0)"/><path class="cls-4" d="M875.52,281.45v-2.09l18.15-28.6H878.48l-.17,4.89h-2.17v-7.16h20.62v2l-18.19,28.72H895.1l.19-5.07h2.16v7.34Z" transform="translate(5.04 0)"/><path class="cls-4" d="M905.35,281.45v-2l2.29-.16,11-30.83h2.43l10.95,30.83,2.29.16v2h-7.67v-2l2.74-.21-2.59-7.44H912.89l-2.61,7.44,2.74.21v2Zm8.37-12H926l-5.62-16.18-.42-1.34h-.13l-.45,1.34Z" transform="translate(5.04 0)"/><path class="cls-4" d="M946.06,281.45v-2l3.48-.3V250.71h-8.73l-.28,5h-2.09v-7.25h24.75v7.25h-2.07l-.3-5h-8.71v28.47l3.48.3v2Z" transform="translate(5.04 0)"/><path class="cls-4" d="M971.09,281.45v-2l3.48-.3v-28.4l-3.48-.29v-2h9.52v2l-3.48.29v28.4l3.48.3v2Z" transform="translate(5.04 0)"/><path class="cls-4" d="M1001.7,281.92a11.51,11.51,0,0,1-9.44-4.62,16,16,0,0,1-2.62-5.28,23.44,23.44,0,0,1-.92-6.82v-.43a23.87,23.87,0,0,1,.91-6.83,16,16,0,0,1,2.61-5.29,11.48,11.48,0,0,1,9.44-4.63,11.92,11.92,0,0,1,5.41,1.2,11.53,11.53,0,0,1,4.1,3.43,15.74,15.74,0,0,1,2.59,5.29,24.63,24.63,0,0,1,.88,6.83v.43a24.55,24.55,0,0,1-.88,6.82,15.77,15.77,0,0,1-2.58,5.28,11.54,11.54,0,0,1-4.08,3.42A12,12,0,0,1,1001.7,281.92Zm0-2.38a9,9,0,0,0,5.69-1.78,10.93,10.93,0,0,0,3.52-5,21.84,21.84,0,0,0,1.19-7.53v-.48a21.4,21.4,0,0,0-1.2-7.51,11.17,11.17,0,0,0-3.54-5,9,9,0,0,0-5.68-1.79,8.85,8.85,0,0,0-5.55,1.79,11.36,11.36,0,0,0-3.58,5,20.75,20.75,0,0,0-1.25,7.5v.48a20.88,20.88,0,0,0,1.25,7.53,11.19,11.19,0,0,0,3.59,5A8.89,8.89,0,0,0,1001.7,279.54Z" transform="translate(5.04 0)"/><path class="cls-4" d="M1023,281.45v-2l3.48-.3v-28.4l-3.48-.29v-2h6.06l17.77,28.34.13-.05v-26l-3.63-.29v-2h9.52v2l-3.48.29v30.67H1047L1029,253l-.13,0v26.14l3.63.3v2Z" transform="translate(5.04 0)"/></g></g></svg>